# File created by Blade
# Date/Time:  Wed Jan 21 16:20:01 2015
# Frame Rate: 120.000 fps
#------------------------------------------------------
:FULLY-SPECIFIED
:DEGREES
175
root 18.481531 35.845963 -18.156129 -184.771227 -1.081430 -180.502594
Spine 11.093718 16.798870 2.140728
Head 25.894290 -15.285522 -0.670110
LeftShoulder -8.177865 -24.451055 -2.362566
LeftArm -20.908386 -2.121811 -50.424342
LeftForeArm -2.123953 -0.000000 3.854496
LeftHand -6.276659 -0.000000 1.824584
LeftHandThumb1 -26.253704 0.000000 33.147579
RightShoulder 1.926431 -8.944607 11.442989
RightArm 45.894444 -18.324873 35.624631
RightForeArm -35.168164 -0.000000 31.874536
RightHand 3.544723 -0.000000 -0.823265
RightHandThumb1 -24.326973 -0.000000 -32.862282
LeftUpLeg -62.571426 -16.992043 -10.636435
LeftLeg 88.819371 -0.000000 -0.000000
LeftFoot 25.239799 25.084469 4.503145
LeftToeBase -163.243699 -0.000000 0.000000
RightUpLeg 4.372898 -6.994233 7.614734
RightLeg 0.189064 -0.000000 -0.000000
RightFoot -17.566731 -24.797498 12.278562
RightToeBase 16.202465 -0.000000 -0.000000
176
root 18.484017 35.850707 -18.165177 -184.885381 -1.180614 -180.592776
Spine 11.294807 16.877733 2.190860
Head 25.932559 -15.454748 -0.829786
LeftShoulder -8.135061 -24.514662 -2.379097
LeftArm -20.889588 -2.034484 -50.321066
LeftForeArm -2.059351 -0.000000 3.848710
LeftHand -6.238902 0.000000 1.766953
LeftHandThumb1 -26.253704 0.000000 33.147579
RightShoulder 2.069224 -8.867728 11.311024
RightArm 46.423207 -18.413460 35.151153
RightForeArm -35.384028 -0.000000 32.368418
RightHand 3.842283 -0.000000 0.054162
RightHandThumb1 -24.326973 -0.000000 -32.862282
LeftUpLeg -63.548655 -17.468122 -11.041855
LeftLeg 89.487606 -0.000000 -0.000000
LeftFoot 25.226098 24.938813 4.432140
LeftToeBase -163.218802 -0.000000 0.000000
RightUpLeg 4.505884 -7.053426 7.505964
RightLeg 0.196763 -0.000000 -0.000000
RightFoot -17.567006 -24.806372 12.208098
RightToeBase 16.175314 -0.000000 -0.000000
177
root 18.485879 35.858203 -18.175022 -185.001712 -1.248692 -180.701706
Spine 11.501088 16.985719 2.200394
Head 25.945672 -15.558109 -0.899147
LeftShoulder -8.091206 -24.549690 -2.399775
LeftArm -20.859982 -2.108379 -50.174628
LeftForeArm -2.048343 -0.000000 3.894014
LeftHand -6.236458 0.000000 1.775530
LeftHandThumb1 -26.253704 0.000000 33.147579
RightShoulder 2.150249 -8.791370 11.275660
RightArm 47.046516 -18.725340 34.162439
RightForeArm -35.274752 -0.000000 33.054231
RightHand 3.856183 0.000000 1.013840
RightHandThumb1 -24.326973 -0.000000 -32.862282
LeftUpLeg -64.468459 -17.915141 -11.444458
LeftLeg 90.067774 -0.000000 -0.000000
LeftFoot 25.151936 24.751773 4.455457
LeftToeBase -163.325467 -0.000000 0.000000
RightUpLeg 4.642507 -7.083497 7.381772
RightLeg 0.188039 -0.000000 -0.000000
RightFoot -17.591489 -24.827990 12.214605
RightToeBase 16.277170 -0.000000 -0.000000
178
root 18.486959 35.867032 -18.187409 -185.122965 -1.288845 -180.821904
Spine 11.707217 17.128509 2.216878
Head 25.977520 -15.624020 -0.961054
LeftShoulder -8.044707 -24.585588 -2.432890
LeftArm -20.806486 -2.111013 -50.035526
LeftForeArm -2.024941 -0.000000 3.910635
LeftHand -6.340380 -0.000000 1.508067
LeftHandThumb1 -26.253704 0.000000 33.147579
RightShoulder 2.283197 -8.701728 11.160440
RightArm 47.470139 -18.860539 33.615316
RightForeArm -35.275355 -0.000000 33.718398
RightHand 3.947690 -0.000000 2.073282
RightHandThumb1 -24.326973 -0.000000 -32.862282
LeftUpLeg -65.348972 -18.327982 -11.856679
LeftLeg 90.581521 -0.000000 -0.000000
LeftFoot 25.135444 24.673795 4.345316
LeftToeBase -163.490727 -0.000000 0.000000
RightUpLeg 4.786691 -7.122045 7.245810
RightLeg 0.162290 -0.000000 -0.000000
RightFoot -17.589191 -24.901864 12.286471
RightToeBase 16.468654 -0.000000 -0.000000
179
root 18.487579 35.876126 -18.198629 -185.207380 -1.291960 -180.935603
Spine 11.857093 17.256301 2.212937
Head 26.014985 -15.642027 -1.007758
LeftShoulder -8.040502 -24.646832 -2.451915
LeftArm -20.807851 -2.071787 -49.889624
LeftForeArm -2.061739 -0.000000 3.955536
LeftHand -6.321859 0.000000 1.496657
LeftHandThumb1 -26.253704 0.000000 33.147579
RightShoulder 2.395778 -8.635241 11.048222
RightArm 48.009410 -19.074772 32.949236
RightForeArm -35.450377 -0.000000 34.284024
RightHand 4.089560 -0.000000 3.204540
RightHandThumb1 -24.326973 -0.000000 -32.862282
LeftUpLeg -66.239495 -18.699627 -12.232497
LeftLeg 91.049839 -0.000000 -0.000000
LeftFoot 24.977631 24.526241 4.205142
LeftToeBase -163.546751 -0.000000 0.000000
RightUpLeg 4.893648 -7.222524 7.104103
RightLeg 0.149054 -0.000000 -0.000000
RightFoot -17.602124 -24.801277 12.362667
RightToeBase 16.828125 -0.000000 -0.000000
180
root 18.497483 35.883774 -18.203693 -185.214168 -1.207979 -181.023212
Spine 11.909280 17.494018 2.199906
Head 26.070247 -15.739272 -1.079006
LeftShoulder -8.003704 -24.704389 -2.455352
LeftArm -20.820855 -2.094701 -49.729492
LeftForeArm -1.974361 -0.000000 3.995183
LeftHand -6.334098 -0.000000 1.363087
LeftHandThumb1 -26.253704 0.000000 33.147579
RightShoulder 2.539854 -8.462783 10.891862
RightArm 48.333147 -19.186216 32.746933
RightForeArm -35.759653 -0.000000 34.774998
RightHand 4.417793 -0.000000 4.626661
RightHandThumb1 -24.326973 -0.000000 -32.862282
LeftUpLeg -67.202998 -18.985832 -12.507014
LeftLeg 91.483594 -0.000000 -0.000000
LeftFoot 24.866741 24.382786 4.181339
LeftToeBase -163.962999 -0.000000 0.000000
RightUpLeg 4.890803 -7.237135 7.007587
RightLeg 0.181326 -0.000000 -0.000000
RightFoot -17.586264 -24.713719 12.455147
RightToeBase 17.505842 -0.000000 -0.000000
181
root 18.505504 35.893088 -18.210936 -185.229505 -1.133363 -181.097890
Spine 11.961812 17.683736 2.204118
Head 26.129873 -15.803095 -1.149759
LeftShoulder -7.986525 -24.786139 -2.477527
LeftArm -20.880731 -2.110825 -49.532659
LeftForeArm -1.893604 -0.000000 4.075251
LeftHand -6.318322 -0.000000 1.240491
LeftHandThumb1 -26.253704 0.000000 33.147579
RightShoulder 2.630605 -8.373267 10.763583
RightArm 48.861504 -19.519211 32.066432
RightForeArm -35.827728 -0.000000 35.324412
RightHand 4.476985 -0.000000 5.743953
RightHandThumb1 -24.326973 -0.000000 -32.862282
LeftUpLeg -68.119286 -19.272021 -12.761042
LeftLeg 91.872222 -0.000000 -0.000000
LeftFoot 24.667877 24.172373 4.092778
LeftToeBase -164.016674 -0.000000 0.000000
RightUpLeg 4.924270 -7.422236 6.901307
RightLeg 0.161736 -0.000000 -0.000000
RightFoot -17.544965 -24.478929 12.662049
RightToeBase 18.007267 -0.000000 -0.000000
182
root 18.512047 35.903606 -18.220665 -185.275446 -1.033433 -181.181582
Spine 12.052415 17.869919 2.212383
Head 26.177135 -15.851141 -1.210799
LeftShoulder -8.011757 -24.823474 -2.497954
LeftArm -20.886341 -2.149810 -49.354285
LeftForeArm -1.872243 0.000000 4.160998
LeftHand -6.319252 -0.000000 1.121235
LeftHandThumb1 -26.253704 0.000000 33.147579
RightShoulder 2.750063 -8.258779 10.610559
RightArm 49.338943 -19.893007 31.406507
RightForeArm -35.858648 -0.000000 35.920217
RightHand 4.523101 -0.000000 6.971797
RightHandThumb1 -24.326973 -0.000000 -32.862282
LeftUpLeg -68.950432 -19.539091 -13.007926
LeftLeg 92.209871 -0.000000 -0.000000
LeftFoot 24.490083 24.007229 4.113346
LeftToeBase -164.055765 -0.000000 0.000000
RightUpLeg 5.006986 -7.667957 6.768805
RightLeg 0.118401 -0.000000 -0.000000
RightFoot -17.493578 -24.127883 12.871025
RightToeBase 18.585092 -0.000000 -0.000000
183
root 18.520269 35.915242 -18.229885 -185.311947 -0.912612 -181.264998
Spine 12.131112 18.090472 2.204692
Head 26.211710 -15.871911 -1.226160
LeftShoulder -8.011093 -24.863942 -2.510556
LeftArm -20.897441 -2.232567 -49.166817
LeftForeArm -1.745906 -0.000000 4.261862
LeftHand -6.406523 -0.000000 1.017776
LeftHandThumb1 -26.253704 0.000000 33.147579
RightShoulder 2.829155 -8.183488 10.487331
RightArm 49.861085 -20.235192 30.694835
RightForeArm -35.899962 -0.000000 36.515777
RightHand 4.723455 -0.000000 8.260993
RightHandThumb1 -24.326973 -0.000000 -32.862282
LeftUpLeg -69.764715 -19.782396 -13.223733
LeftLeg 92.510271 -0.000000 -0.000000
LeftFoot 24.225665 23.847297 4.112726
LeftToeBase -164.208998 -0.000000 0.000000
RightUpLeg 5.070274 -7.967528 6.631472
RightLeg 0.098619 -0.000000 -0.000000
RightFoot -17.488614 -23.665801 13.163041
RightToeBase 19.201771 -0.000000 -0.000000
184
root 18.528184 35.925854 -18.237733 -185.328232 -0.796088 -181.345480
Spine 12.187424 18.286235 2.182795
Head 26.212358 -15.891044 -1.233099
LeftShoulder -8.016570 -24.945628 -2.515785
LeftArm -20.965238 -2.277516 -48.980233
LeftForeArm -1.663046 -0.000000 4.368815
LeftHand -6.392436 0.000000 1.028785
LeftHandThumb1 -26.253704 0.000000 33.147579
RightShoulder 2.895575 -8.064591 10.362467
RightArm 50.392852 -20.707934 29.889234
RightForeArm -35.950982 0.000000 37.115664
RightHand 4.821044 -0.000000 9.327732
RightHandThumb1 -24.326973 -0.000000 -32.862282
LeftUpLeg -70.569274 -20.002419 -13.419474
LeftLeg 92.759128 -0.000000 -0.000000
LeftFoot 24.045635 23.805389 4.056684
LeftToeBase -164.375365 -0.000000 0.000000
RightUpLeg 5.111637 -8.191999 6.511105
RightLeg 0.059843 -0.000000 -0.000000
RightFoot -17.570369 -23.394072 13.514077
RightToeBase 20.284666 -0.000000 -0.000000
185
root 18.537125 35.937771 -18.244612 -185.342411 -0.698204 -181.403211
Spine 12.240110 18.444658 2.184029
Head 26.197806 -15.913036 -1.231885
LeftShoulder -8.008672 -25.045517 -2.538415
LeftArm -21.065960 -2.291738 -48.788728
LeftForeArm -1.638274 -0.000000 4.489778
LeftHand -6.358669 -0.000000 1.042437
LeftHandThumb1 -26.253704 0.000000 33.147579
RightShoulder 2.950313 -8.013702 10.265579
RightArm 51.000154 -21.134391 28.972862
RightForeArm -36.156828 -0.000000 37.792348
RightHand 4.787625 0.000000 10.545672
RightHandThumb1 -24.326973 -0.000000 -32.862282
LeftUpLeg -71.329313 -20.201121 -13.587779
LeftLeg 92.976416 -0.000000 -0.000000
LeftFoot 23.803638 23.654325 4.081961
LeftToeBase -164.458889 -0.000000 0.000000
RightUpLeg 5.152144 -8.564038 6.368494
RightLeg 0.070594 -0.000000 -0.000000
RightFoot -17.617624 -22.784242 13.712014
RightToeBase 21.184486 -0.000000 -0.000000
